{
    "asset" : {
        "generator" : "Khronos glTF Blender I/O v1.5.17",
        "version" : "2.0"
    },
    "scene" : 0,
    "scenes" : [
        {
            "extras" : {
                "glTF2ExportSettings" : {
                    "export_apply" : 1,
                    "export_cameras" : 1,
                    "export_extras" : 1,
                    "export_format" : "GLTF_EMBEDDED",
                    "export_lights" : 1,
                    "use_selection" : 1
                }
            },
            "name" : "Scene",
            "nodes" : [
                0
            ]
        }
    ],
    "nodes" : [
        {
            "mesh" : 0,
            "name" : "path798",
            "rotation" : [
                0.4884325861930847,
                0.3850341737270355,
                -0.3344903886318207,
                0.7080243825912476
            ],
            "translation" : [
                -11.525575637817383,
                -9.186737060546875,
                -7.504453659057617
            ]
        }
    ],
    "materials" : [
        {
            "doubleSided" : true,
            "name" : "SVGMat.001",
            "pbrMetallicRoughness" : {
                "baseColorFactor" : [
                    0.00913403183221817,
                    0.05780543386936188,
                    0.20863689482212067,
                    1
                ],
                "metallicFactor" : 0.7573529481887817,
                "roughnessFactor" : 0.16911765933036804
            }
        }
    ],
    "meshes" : [
        {
            "name" : "path798",
            "primitives" : [
                {
                    "attributes" : {
                        "POSITION" : 0,
                        "NORMAL" : 1,
                        "TEXCOORD_0" : 2
                    },
                    "indices" : 3,
                    "material" : 0
                }
            ]
        }
    ],
    "accessors" : [
        {
            "bufferView" : 0,
            "componentType" : 5126,
            "count" : 3848,
            "max" : [
                4.2791666984558105,
                0.33005887269973755,
                0
            ],
            "min" : [
                0,
                -0.33005887269973755,
                -4.590836048126221
            ],
            "type" : "VEC3"
        },
        {
            "bufferView" : 1,
            "componentType" : 5126,
            "count" : 3848,
            "type" : "VEC3"
        },
        {
            "bufferView" : 2,
            "componentType" : 5126,
            "count" : 3848,
            "type" : "VEC2"
        },
        {
            "bufferView" : 3,
            "componentType" : 5123,
            "count" : 6360,
            "type" : "SCALAR"
        }
    ],
    "bufferViews" : [
        {
            "buffer" : 0,
            "byteLength" : 46176,
            "byteOffset" : 0
        },
        {
            "buffer" : 0,
            "byteLength" : 46176,
            "byteOffset" : 46176
        },
        {
            "buffer" : 0,
            "byteLength" : 30784,
            "byteOffset" : 92352
        },
        {
            "buffer" : 0,
            "byteLength" : 12720,
            "byteOffset" : 123136
        }
    ],
    "buffers" : [
        {
            "byteLength" : 135856,
            "uri" : "data:application/octet-stream;base64,"
        }
    ]
}
