<?xml version="1.0" encoding="UTF-8" standalone="no"?>
<svg
   xmlns:dc="http://purl.org/dc/elements/1.1/"
   xmlns:cc="http://creativecommons.org/ns#"
   xmlns:rdf="http://www.w3.org/1999/02/22-rdf-syntax-ns#"
   xmlns:svg="http://www.w3.org/2000/svg"
   xmlns="http://www.w3.org/2000/svg"
   xmlns:sodipodi="http://sodipodi.sourceforge.net/DTD/sodipodi-0.dtd"
   xmlns:inkscape="http://www.inkscape.org/namespaces/inkscape"
   sodipodi:docname="TCsvg.svg"
   inkscape:version="1.0 (4035a4fb49, 2020-05-01)"
   id="svg8"
   version="1.1"
   viewBox="0 0 12.964595 13.91181"
   height="13.91181mm"
   width="12.964595mm">
  <defs
     id="defs2" />
  <sodipodi:namedview
     inkscape:window-maximized="0"
     inkscape:window-y="0"
     inkscape:window-x="1972"
     inkscape:window-height="1009"
     inkscape:window-width="898"
     fit-margin-bottom="0"
     fit-margin-right="0"
     fit-margin-left="0"
     fit-margin-top="0"
     showgrid="false"
     inkscape:document-rotation="0"
     inkscape:current-layer="layer1"
     inkscape:document-units="mm"
     inkscape:cy="68.410353"
     inkscape:cx="-3.0469128"
     inkscape:zoom="2.8"
     inkscape:pageshadow="2"
     inkscape:pageopacity="0.0"
     borderopacity="1.0"
     bordercolor="#666666"
     pagecolor="#ffffff"
     id="base" />
  <metadata
     id="metadata5">
    <rdf:RDF>
      <cc:Work
         rdf:about="">
        <dc:format>image/svg+xml</dc:format>
        <dc:type
           rdf:resource="http://purl.org/dc/dcmitype/StillImage" />
        <dc:title></dc:title>
      </cc:Work>
    </rdf:RDF>
  </metadata>
  <g
     transform="translate(-99.529245,-165.16064)"
     id="layer1"
     inkscape:groupmode="layer"
     inkscape:label="Taso 1">
    <path
       d="m 106.01154,165.16066 c -0.96068,0 -1.92136,0.39318 -3.83646,1.17926 -0.72761,0.29866 -1.62058,0.60251 -1.98438,0.67541 l -0.661455,0.13229 0.0739,3.25303 c 0.01442,0.63562 0.04324,1.21275 0.08785,1.74408 0.0083,0.0116 0.01715,0.0204 0.02429,0.0377 0.01571,0.0382 0.0054,0.079 -0.0088,0.12041 0.314535,3.40596 1.372465,4.78093 4.283975,6.13658 0.74792,0.34824 1.65727,0.63303 2.02107,0.63303 0.97832,0 3.23086,-1.12994 4.45347,-2.23449 1.49931,-1.35453 1.86764,-2.56687 1.95544,-6.43733 l 0.0734,-3.25303 -0.66146,-0.13229 c -0.3638,-0.0729 -1.25677,-0.37675 -1.98438,-0.67541 -1.9151,-0.78608 -2.87578,-1.17926 -3.83645,-1.17926 z m 0.76016,0.92863 c 0.38465,0.009 0.96224,0.2943 1.82779,0.65525 0.83236,0.34712 1.88168,0.70954 2.33216,0.80564 l 0.81907,0.17467 -0.10232,2.70009 c -0.17987,4.73047 -0.61657,5.59954 -3.55585,7.08329 -0.8452,0.42665 -1.65901,0.77566 -1.80868,0.77566 -0.17853,0 -0.27233,-2.09238 -0.27233,-6.08542 0,-4.80782 -0.0861,-6.1284 0.76016,-6.10918 z m 3.04064,3.13314 c -0.26507,-0.003 -0.59974,0.0168 -1.02165,0.0517 -1.17073,0.0968 -1.72098,0.47957 -2.14353,1.49087 -0.43684,1.0455 -0.029,2.46338 0.86093,2.99258 0.26829,0.15956 1.08313,0.26143 1.81074,0.22583 1.19144,-0.0582 1.33125,-0.13085 1.40715,-0.72657 l 0.0847,-0.66146 -0.43047,0.59531 c -0.90681,1.25533 -2.93481,0.46121 -3.20962,-1.25677 -0.31062,-1.94191 2.12773,-3.31196 3.19154,-1.79317 l 0.41186,0.58808 v -0.72037 c 0,-0.57334 -0.16649,-0.7782 -0.9617,-0.786 z m -6.71122,0.0656 c 2.02777,0 2.11558,0.025 2.08618,0.59531 -0.0231,0.44798 -0.0609,0.48072 -0.15193,0.13229 -0.0805,-0.30794 -0.38005,-0.46302 -0.89504,-0.46302 h -0.77463 v 2.09755 c 0,1.77492 0.0712,2.11607 0.46302,2.21847 0.25466,0.0665 -0.0132,0.12574 -0.59531,0.13074 -0.58208,0.005 -0.9095,-0.0506 -0.7276,-0.12403 0.2255,-0.091 0.33073,-0.79963 0.33073,-2.22777 v -2.09496 h -0.77412 c -0.51499,0 -0.81505,0.15508 -0.89555,0.46302 -0.0911,0.34843 -0.12831,0.31569 -0.15141,-0.13229 -0.0294,-0.57032 0.0579,-0.59531 2.08566,-0.59531 z"
       style="fill:#18447e;stroke-width:0.264583"
       id="path798" />
    <path
       transform="scale(0.26458333)"
       id="path712"
       d=""
       style="fill:#18447e;stroke:#18447e;stroke-width:0.143171;stroke-linecap:round;stroke-linejoin:round" />
  </g>
</svg>
